<?xml version="1.0" encoding="utf-8"?>
<svg version="1.1" xmlns:xlink="http://www.w3.org/1999/xlink" width="16px" height="16px" xmlns="http://www.w3.org/2000/svg">
  <defs>
    <linearGradient gradientUnits="userSpaceOnUse" x1="8" y1="0" x2="8" y2="16" id="LinearGradient607">
      <stop id="Stop608" stop-color="#00ffff" offset="0" />
      <stop id="Stop609" stop-color="#00ffff" stop-opacity="0.0901960784313725" offset="1" />
    </linearGradient>
  </defs>
  <g transform="matrix(1 0 0 1 -315 -288 )">
    <path d="M 13.4545454545455 0.5  C 14.5839768182187 0.500342087251285  15.4993804635558 1.4160230361509  15.4993804635558 2.54545445163055  C 15.4993804635558 3.67512780355718  14.5835992700279 4.5909089970851  13.4539259181013 4.5909089970851  C 13.1403773546996 4.5909089970851  12.8310258030263 4.51882528494382  12.5497727272727 4.38022727272727  L 10.3365909090909 6.59272727272727  C 10.5847727272727 7.00318181818182  10.7272727272727 7.48522727272727  10.7272727272727 8  C 10.7272727272727 8.33340909090909  10.6672727272727 8.65318181818182  10.5581818181818 8.94772727272727  L 12.2947727272727 10.4054545454545  C 12.6357010868729 10.1711335154256  13.039667109307 10.0456954400755  13.4533559917942 10.0456954400755  C 14.5830293437208 10.0456954400755  15.4988105372487 10.9614766336035  15.4988105372487 12.0911499855301  C 15.4988105372487 13.2208233374567  14.5830293437208 14.1366045309846  13.4533559917942 14.1366045309846  C 12.3236826398675 14.1366045309846  11.4079014463396 13.2208233374567  11.4079014463396 12.0911499855301  C 11.4079014463396 11.8951019829101  11.4360862356383 11.7000721828481  11.4915909090909 11.5120454545455  L 9.77340909090909 10.0713636363636  C 9.29681818181818 10.4804545454545  8.67704545454546 10.7272727272727  8 10.7272727272727  C 7.48522727272727 10.7272727272727  7.00454545454546 10.5840909090909  6.59340909090909 10.3372727272727  L 5.56386363636364 11.3661363636364  C 5.81914633466638 11.7905747230259  5.95402601986292 12.2765197253447  5.95402601986292 12.7718147656732  C 5.95402601986292 14.2780459015753  4.73298442849236 15.4990874929459  3.22675329259019 15.4990874929459  C 1.72052215668803 15.4990874929459  0.499480565317464 14.2780459015753  0.499480565317464 12.7718147656732  C 0.499480565317464 11.265583629771  1.72052215668803 10.0445420384005  3.22675329259019 10.0445420384005  C 3.70569305761626 10.0445420384005  4.17618776595709 10.1706661716418  4.59090909090909 10.4102272727273  L 5.6375 9.36363636363636  C 5.39780548308423 8.94920296280529  5.27196109111516 8.47875663768729  5.27272727272727 8  C 5.27272727272727 7.4825  5.41659090909091 6.99909090909091  5.66681818181818 6.58727272727273  L 4.6175 5.57409090909091  C 4.19665042928062 5.82343939697339  3.71648256659735 5.95500678327481  3.22731078737867 5.95500678327481  C 1.72107965147651 5.95500678327481  0.500038060105946 4.73396519190424  0.500038060105946 3.22773405600208  C 0.500038060105946 1.72150292009991  1.72107965147651 0.500461328729351  3.22731078737867 0.500461328729351  C 4.73354192328084 0.500461328729351  5.9545835146514 1.72150292009991  5.9545835146514 3.22773405600208  C 5.9545835146514 3.7129790646593  5.8251186591083 4.18943749726239  5.57954545454545 4.60795454545455  L 6.64318181818182 5.63340909090909  C 7.05600960614847 5.39630251722376  7.52392684132092 5.27191647832616  8 5.27272727272727  C 8.49704545454546 5.27272727272727  8.96272727272727 5.40568181818182  9.36363636363636 5.6375  L 11.5972727272727 3.40386363636364  C 11.4728668291578 3.13479171412109  11.4084328290782 2.84189419203045  11.4084328290782 2.54545443959316  C 11.4084328290782 1.41578108766653  12.3242140226061 0.499999894138612  13.4538873745328 0.499999894138612  Z M 3.22727272727273 11.4090909090909  C 2.47415715932165 11.4090909090909  1.86363636363636 12.0196117047762  1.86363636363636 12.7727272727273  C 1.86363636363636 13.5258428406784  2.47415715932165 14.1363636363636  3.22727272727273 14.1363636363636  C 3.98038829522381 14.1363636363636  4.59090909090909 13.5258428406784  4.59090909090909 12.7727272727273  C 4.59090909090909 12.0196117047762  3.98038829522381 11.4090909090909  3.22727272727273 11.4090909090909  Z M 13.4545454545455 11.4090909090909  C 13.0779876705699 11.4090909090909  12.7727272727273 11.7143513069335  12.7727272727273 12.0909090909091  C 12.7727272727273 12.4674668748846  13.0779876705699 12.7727272727273  13.4545454545455 12.7727272727273  C 13.831103238521 12.7727272727273  14.1363636363636 12.4674668748846  14.1363636363636 12.0909090909091  C 14.1363636363636 11.7143513069335  13.831103238521 11.4090909090909  13.4545454545455 11.4090909090909  Z M 8 6.63636363636364  C 7.24688443204892 6.63636363636364  6.63636363636364 7.24688443204892  6.63636363636364 8  C 6.63636363636364 8.75311556795108  7.24688443204892 9.36363636363636  8 9.36363636363636  C 8.75311556795108 9.36363636363636  9.36363636363636 8.75311556795108  9.36363636363636 8  C 9.36363636363636 7.24688443204892  8.75311556795108 6.63636363636364  8 6.63636363636364  Z M 3.22727272727273 1.86363636363636  C 2.47415715932165 1.86363636363636  1.86363636363636 2.47415715932165  1.86363636363636 3.22727272727273  C 1.86363636363636 3.98038829522381  2.47415715932165 4.59090909090909  3.22727272727273 4.59090909090909  C 3.98038829522381 4.59090909090909  4.59090909090909 3.98038829522381  4.59090909090909 3.22727272727273  C 4.59090909090909 2.47415715932165  3.98038829522381 1.86363636363636  3.22727272727273 1.86363636363636  Z M 13.4545454545455 1.86363636363636  C 13.0779876705699 1.86363636363636  12.7727272727273 2.168896761479  12.7727272727273 2.54545454545455  C 12.7727272727273 2.92201232943009  13.0779876705699 3.22727272727273  13.4545454545455 3.22727272727273  C 13.831103238521 3.22727272727273  14.1363636363636 2.92201232943009  14.1363636363636 2.54545454545455  C 14.1363636363636 2.168896761479  13.831103238521 1.86363636363636  13.4545454545455 1.86363636363636  Z " fill-rule="nonzero" fill="url(#LinearGradient607)" stroke="none" transform="matrix(1 0 0 1 315 288 )" />
  </g>
</svg>