<?xml version="1.0" encoding="utf-8"?>
<svg version="1.1" xmlns:xlink="http://www.w3.org/1999/xlink" width="20px" height="10px" xmlns="http://www.w3.org/2000/svg">
  <defs>
    <linearGradient gradientUnits="userSpaceOnUse" x1="10" y1="0" x2="10" y2="10" id="LinearGradient610">
      <stop id="Stop611" stop-color="#00ffff" offset="0" />
      <stop id="Stop612" stop-color="#00ffff" stop-opacity="0.0901960784313725" offset="1" />
    </linearGradient>
  </defs>
  <g transform="matrix(1 0 0 1 -161 -287 )">
    <path d="M 10.48671875 9.21116536458333  C 10.3205759934877 9.33187068932545  10.1146234129271 9.39724928088473  9.90262784090909 9.39658203125  C 9.69978125616693 9.39738862333937  9.50235577445427 9.33658340645431  9.34119318181818 9.22366536458333  L 1.31970880681818 5.28466796875  C 1.26701197833431 5.25875926364179  1.21861421435613 5.22609550611236  1.1759765625 5.18766276041667  C 0.816974431818182 4.863330078125  0.820614346590909 4.33224283854167  1.18396661931818 4.00384114583333  C 1.23115696628615 3.96134321032721  1.28533934479284 3.92590666855109  1.34453125 3.898828125  L 9.51889204545455 0.175504557291667  C 9.68229956163439 0.0619552022287549  9.88186290912555 0.000735439429208731  10.0869140625 0.00125325520833333  C 10.2857244318182 0.00125325520833333  10.4747336647727 0.0577473958333333  10.6308238636364 0.162418619791667  L 18.6497336647727 3.6068359375  C 18.7140861173614 3.63453814973125  18.7729061088764 3.67195086542279  18.8237393465909 3.71751302083333  C 18.9985311175495 3.8761250103503  19.0950166505176 4.09332757354154  19.0908203125 4.31875  C 19.0860245135434 4.53864544464556  18.987084036002 4.74799207515306  18.8153586647727 4.90159505208333  C 18.7759108842114 4.9373788285624  18.7313526016873 4.96809477599938  18.6829012784091 4.99290364583333  L 10.48671875 9.21116536458333  Z M 2.56226917613636 4.60916341145833  L 9.90081676136364 8.2130859375  L 17.4349076704545 4.33557942708333  L 10.089453125 1.18074544270833  L 2.56228693181818 4.60916341145833  Z " fill-rule="nonzero" fill="url(#LinearGradient610)" stroke="none" transform="matrix(1 0 0 1 161 287 )" />
  </g>
</svg>