<?xml version="1.0" encoding="utf-8"?>
<svg version="1.1" xmlns:xlink="http://www.w3.org/1999/xlink" width="323px" height="194px" xmlns="http://www.w3.org/2000/svg">
  <defs>
    <linearGradient gradientUnits="userSpaceOnUse" x1="0" y1="97" x2="323" y2="97" id="LinearGradient599">
      <stop id="Stop600" stop-color="#0099ff" offset="0" />
      <stop id="Stop601" stop-color="#0bb0d3" offset="1" />
    </linearGradient>
    <mask fill="white" id="clip602">
      <path d="M 0.192261904761902 192.845238095238  L 0.961309523809527 0.38492063492081  L 73.6363095238095 0.38492063492081  L 79.0196428571429 5  L 243.980357142857 5  L 250.517261904762 0.38492063492081  L 322.807738095238 1.1547619047619  L 322.807738095238 192  L 249.36369047619 192  L 243.980357142857 189  L 79.0196428571429 189  L 72.4827380952381 194  L 0.192261904761902 192.845238095238  Z " fill-rule="evenodd" />
    </mask>
  </defs>
  <g transform="matrix(1 0 0 1 -134 -225 )">
    <path d="M 0.192261904761902 192.845238095238  L 0.961309523809527 0.38492063492081  L 73.6363095238095 0.38492063492081  L 79.0196428571429 5  L 243.980357142857 5  L 250.517261904762 0.38492063492081  L 322.807738095238 1.1547619047619  L 322.807738095238 192  L 249.36369047619 192  L 243.980357142857 189  L 79.0196428571429 189  L 72.4827380952381 194  L 0.192261904761902 192.845238095238  Z " fill-rule="nonzero" fill="#0464ff" stroke="none" fill-opacity="0.117647058823529" transform="matrix(1 0 0 1 134 225 )" />
    <path d="M 0.192261904761902 192.845238095238  L 0.961309523809527 0.38492063492081  L 73.6363095238095 0.38492063492081  L 79.0196428571429 5  L 243.980357142857 5  L 250.517261904762 0.38492063492081  L 322.807738095238 1.1547619047619  L 322.807738095238 192  L 249.36369047619 192  L 243.980357142857 189  L 79.0196428571429 189  L 72.4827380952381 194  L 0.192261904761902 192.845238095238  Z " stroke-width="2" stroke="url(#LinearGradient599)" fill="none" transform="matrix(1 0 0 1 134 225 )" mask="url(#clip602)" />
  </g>
</svg>