<?xml version="1.0" encoding="utf-8"?>
<svg version="1.1" xmlns:xlink="http://www.w3.org/1999/xlink" width="17px" height="17px" xmlns="http://www.w3.org/2000/svg">
  <g transform="matrix(1 0 0 1 -161 -323 )">
    <path d="M 11.7477934793048 1.58717635136853  C 11.7477934793048 1.43113868310465  11.6555983110369 1.28984015142945  11.5127777777778 1.22699073459201  C 10.5576688698691 0.831368642037568  9.5338028129 0.628360716948877  8.5 0.629629623480903  C 4.15319444444444 0.629629623480903  0.629629623480903 4.15319444444444  0.629629623480903 8.5  C 0.629629623480903 12.8468055555556  4.15319444444444 16.3703703765191  8.5 16.3703703765191  C 12.8468055555556 16.3703703765191  16.3703703765191 12.8468055555556  16.3703703765191 8.5  C 16.3703703765191 7.45324073459201  16.1657407530382 6.43402777777778  15.773009265408 5.48722222222222  C 15.7101598485706 5.34440168896309  15.5688613168953 5.25220652069519  15.4128236486315 5.25220652069519  C 15.1954893754735 5.25220652069519  15.0193051362617 5.42839075990705  15.0193051362617 5.64572503306499  C 15.0193051362617 5.69462514762148  15.0284192331303 5.7430969290339  15.0461805555556 5.78865740125868  C 15.4021160104027 6.64822190535546  15.5846643320683 7.56965629299558  15.5833333333333 8.5  C 15.5833333333333 12.4119675987413  12.4119675987413 15.5833333333333  8.5 15.5833333333333  C 4.58803240125868 15.5833333333333  1.41666666666667 12.4119675987413  1.41666666666667 8.5  C 1.41666666666667 4.58803240125868  4.58803240125868 1.41666666666667  8.5 1.41666666666667  C 9.4428703765191 1.41666666666667  10.359375 1.60083333333333  11.2113425987413 1.95381944444444  C 11.2569030709661 1.97158076686969  11.3053748523785 1.98069486373832  11.354274966935 1.98069486373832  C 11.5716092400929 1.98069486373832  11.7477934793048 1.80451062452646  11.7477934793048 1.58717635136853  Z M 8.89351851236979 8.73060184570313  L 8.89351851236979 5.7453703765191  C 8.89351851236979 5.52803610336116  8.71733427315794 5.3518518641493  8.5 5.3518518641493  C 8.28266572684206 5.3518518641493  8.10648148763021 5.52803610336116  8.10648148763021 5.7453703765191  L 8.10648148763021 8.89351851236979  C 8.10650376993097 8.99787758298891  8.14797825156494 9.09795424609694  8.22178240125868 9.17173611111111  L 10.5828935123698 11.5328472222222  C 10.6562607824624 11.6037078775987  10.7542758682157 11.6433128471221  10.8562758133197 11.6433128471221  C 11.0736100864776 11.6433128471221  11.2497943256895 11.4671286079102  11.2497943256895 11.2497943347523  C 11.2497943256895 11.1477943941611  11.2101893596617 11.0497793123814  11.1393287098524 10.9764120431858  L 8.89351851236979 8.73060184570313  Z " fill-rule="nonzero" fill="#f2f2f2" stroke="none" transform="matrix(1 0 0 1 161 323 )" />
  </g>
</svg>