<?xml version="1.0" encoding="utf-8"?>
<svg version="1.1" xmlns:xlink="http://www.w3.org/1999/xlink" width="14px" height="18px" xmlns="http://www.w3.org/2000/svg">
  <defs>
    <linearGradient gradientUnits="userSpaceOnUse" x1="7.07" y1="0.0900000000000001" x2="7.07" y2="17.91" id="LinearGradient788">
      <stop id="Stop789" stop-color="#80ffff" offset="0" />
      <stop id="Stop790" stop-color="#00ee9a" offset="0.99" />
    </linearGradient>
  </defs>
  <g transform="matrix(1 0 0 1 -287 -368 )">
    <path d="M 3.26186045898438 1.03855814648437  C 3.26186045898437 0.46506976171875  2.95041860546875 0  2.56634884375 0  L 1.44553488085938 0  C 1.06146511914063 0  0.750023248046875 0.46506976171875  1 1.03855814648437  L 1 16.9612325507813  C 0.750023248046875 17.5347209179688  1.0614651015625 17.9997906972656  1.44553488085938 17.9997906972656  L 2.56634884375 17.9997906972656  C 2.95041860546875 17.9997906972656  3.2618604765625 17.5347209355469  3.26186045898438 16.9612325507813  L 3.26186045898438 1.03855814648437  Z M 13 1.03855814648437  C 13.2497674492187 0.46506976171875  12.938325578125 0  12.5542558164062 0  L 11.4334418535156 0  C 11.0493720917969 0  10.7379302207031 0.46506976171875  10.7379302382813 1.03855814648437  L 10.7379302382813 16.9612325507813  C 10.7379302382813 17.5347209179688  11.0493720917969 17.9997906972656  11.4334418535156 17.9997906972656  L 12.5542558164062 17.9997906972656  C 12.938325578125 17.9997906972656  13.2497674492187 17.5347209355469  13 16.9612325507813  L 13 1.03855814648437  Z " fill-rule="nonzero" fill="url(#LinearGradient788)" stroke="none" transform="matrix(1 0 0 1 287 368 )" />
  </g>
</svg>